<?xml version="1.0" encoding="UTF-8" standalone="no"?>
<svg
   viewBox="0 0 20 20"
   version="1.1"
   id="svg4"
   sodipodi:docname="set_target_nearest.svg"
   inkscape:version="1.2.2 (b0a8486541, 2022-12-01)"
   width="16"
   height="16"
   xmlns:inkscape="http://www.inkscape.org/namespaces/inkscape"
   xmlns:sodipodi="http://sodipodi.sourceforge.net/DTD/sodipodi-0.dtd"
   xmlns="http://www.w3.org/2000/svg"
   xmlns:svg="http://www.w3.org/2000/svg"
   xmlns:rdf="http://www.w3.org/1999/02/22-rdf-syntax-ns#"
   xmlns:cc="http://creativecommons.org/ns#">
  <defs
     id="defs8" />
  <sodipodi:namedview
     id="namedview6"
     pagecolor="#ffffff"
     bordercolor="#000000"
     borderopacity="0.25"
     inkscape:showpageshadow="2"
     inkscape:pageopacity="0.0"
     inkscape:pagecheckerboard="0"
     inkscape:deskcolor="#d1d1d1"
     showgrid="false"
     inkscape:zoom="42.791667"
     inkscape:cx="6.0058422"
     inkscape:cy="9.9785783"
     inkscape:window-width="2560"
     inkscape:window-height="1367"
     inkscape:window-x="0"
     inkscape:window-y="0"
     inkscape:window-maximized="1"
     inkscape:current-layer="svg4" />
  <path
     d="M 19,9 H 17.93 A 8,8 0 0 0 11,2.07 V 1 A 1,1 0 0 0 9,1 V 2.07 A 8,8 0 0 0 2.07,9 H 1 a 1,1 0 0 0 0,2 H 2.07 A 8,8 0 0 0 9,17.93 V 19 a 1,1 0 0 0 2,0 V 17.93 A 8,8 0 0 0 17.93,11 H 19 a 1,1 0 0 0 0,-2 z m -4,2 h 0.91 A 6,6 0 0 1 11,15.91 V 15 a 1,1 0 0 0 -2,0 v 0.91 A 6,6 0 0 1 4.09,11 H 5 A 1,1 0 0 0 5,9 H 4.09 A 6,6 0 0 1 9,4.09 V 5 a 1,1 0 0 0 2,0 V 4.09 A 6,6 0 0 1 15.91,9 H 15 a 1,1 0 0 0 0,2 z M 10,9 a 1,1 0 1 0 1,1 1,1 0 0 0 -1,-1 z"
     id="path2"
     style="fill:#ffb649;fill-opacity:1" />
  <metadata
     id="metadata233">
    <rdf:RDF>
      <cc:Work
         rdf:about="">
        <cc:license
           rdf:resource="https://github.com/Iconscout/unicons/blob/master/LICENSE" />
      </cc:Work>
    </rdf:RDF>
  </metadata>
</svg>
