<?xml version="1.0" encoding="UTF-8" standalone="no"?>
<svg
   viewBox="0 0 20 20"
   version="1.1"
   id="svg4"
   sodipodi:docname="focus.svg"
   inkscape:version="1.2.2 (b0a8486541, 2022-12-01)"
   width="16"
   height="16"
   xmlns:inkscape="http://www.inkscape.org/namespaces/inkscape"
   xmlns:sodipodi="http://sodipodi.sourceforge.net/DTD/sodipodi-0.dtd"
   xmlns="http://www.w3.org/2000/svg"
   xmlns:svg="http://www.w3.org/2000/svg"
   xmlns:rdf="http://www.w3.org/1999/02/22-rdf-syntax-ns#"
   xmlns:cc="http://creativecommons.org/ns#">
  <defs
     id="defs8" />
  <sodipodi:namedview
     id="namedview6"
     pagecolor="#ffffff"
     bordercolor="#000000"
     borderopacity="0.25"
     inkscape:showpageshadow="2"
     inkscape:pageopacity="0.0"
     inkscape:pagecheckerboard="0"
     inkscape:deskcolor="#d1d1d1"
     showgrid="false"
     inkscape:zoom="42.791667"
     inkscape:cx="8.6699124"
     inkscape:cy="9.9785784"
     inkscape:window-width="2560"
     inkscape:window-height="1367"
     inkscape:window-x="0"
     inkscape:window-y="0"
     inkscape:window-maximized="1"
     inkscape:current-layer="svg4" />
  <path
     d="M 6,0 H 1 A 1,1 0 0 0 0,1 V 6 A 1,1 0 0 0 2,6 V 2 H 6 A 1,1 0 0 0 6,0 Z M 6,18 H 2 v -4 a 1,1 0 0 0 -2,0 v 5 a 1,1 0 0 0 1,1 H 6 A 1,1 0 0 0 6,18 Z M 19,0 h -5 a 1,1 0 0 0 0,2 h 4 v 4 a 1,1 0 0 0 2,0 V 1 A 1,1 0 0 0 19,0 Z m 0,13 a 1,1 0 0 0 -1,1 v 4 h -4 a 1,1 0 0 0 0,2 h 5 a 1,1 0 0 0 1,-1 v -5 a 1,1 0 0 0 -1,-1 z"
     id="path2"
     style="fill:#ffb649;fill-opacity:1" />
  <metadata
     id="metadata3390">
    <rdf:RDF>
      <cc:Work
         rdf:about="">
        <cc:license
           rdf:resource="https://github.com/Iconscout/unicons/blob/master/LICENSE" />
      </cc:Work>
    </rdf:RDF>
  </metadata>
</svg>
