<?xml version="1.0" encoding="UTF-8" standalone="no"?>
<svg
   version="1.1"
   width="16"
   height="16"
   viewBox="0 0 32 32"
   preserveAspectRatio="xMidYMid"
   id="svg8"
   sodipodi:docname="ruler-pencil-solid.svg"
   inkscape:version="1.2.2 (b0a8486541, 2022-12-01)"
   xmlns:inkscape="http://www.inkscape.org/namespaces/inkscape"
   xmlns:sodipodi="http://sodipodi.sourceforge.net/DTD/sodipodi-0.dtd"
   xmlns="http://www.w3.org/2000/svg"
   xmlns:svg="http://www.w3.org/2000/svg"
   xmlns:rdf="http://www.w3.org/1999/02/22-rdf-syntax-ns#"
   xmlns:cc="http://creativecommons.org/ns#"
   xmlns:dc="http://purl.org/dc/elements/1.1/">
  <defs
     id="defs12" />
  <sodipodi:namedview
     id="namedview10"
     pagecolor="#ffffff"
     bordercolor="#000000"
     borderopacity="0.25"
     inkscape:showpageshadow="2"
     inkscape:pageopacity="0.0"
     inkscape:pagecheckerboard="0"
     inkscape:deskcolor="#d1d1d1"
     showgrid="false"
     inkscape:zoom="43.580952"
     inkscape:cx="7.9163025"
     inkscape:cy="10.256775"
     inkscape:window-width="2560"
     inkscape:window-height="1367"
     inkscape:window-x="0"
     inkscape:window-y="0"
     inkscape:window-maximized="1"
     inkscape:current-layer="svg8" />
  <title
     id="title2">ruler-pencil-solid</title>
  <path
     class="clr-i-solid clr-i-solid-path-1"
     d="M 31.714583,30.342095 27.015772,25.649591 V 7.597024 L 24.79662,3.4959305 a 1.9296968,1.9390513 0 0 0 -3.415563,0 L 19.296985,7.6067192 V 17.932167 L 1.6499071,0.28680061 A 0.9648484,0.96952564 0 0 0 1.6315363e-5,0.97516385 V 8.808931 H 2.0937373 v 1.551241 H 1.6315363e-5 v 6.204964 H 2.0937373 v 1.551241 H 1.6315363e-5 v 6.447345 H 2.0937373 v 1.551241 H 1.6315363e-5 v 4.915495 A 0.9648484,0.96952564 0 0 0 0.96486471,31.999984 H 31.029541 a 0.9648484,0.96952564 0 0 0 0.685042,-1.657889 z M 7.7188035,24.321341 v -8.783902 l 8.7511755,8.783902 z M 25.086075,26.36704 h -3.859394 v -2.355947 h 3.859394 z m 0,-3.878103 H 21.226681 V 8.0817868 l 1.871806,-3.6551117 1.987588,3.6648069 z"
     id="path4"
     style="fill:#ffb649;fill-opacity:1;stroke-width:0.967184" />
  <rect
     x="-1.9999831"
     y="-0.91418457"
     width="36"
     height="36"
     fill-opacity="0"
     id="rect6" />
  <metadata
     id="metadata241">
    <rdf:RDF>
      <cc:Work
         rdf:about="">
        <dc:title>ruler-pencil-solid</dc:title>
        <cc:license
           rdf:resource="https://github.com/vmware/clarity-assets/blob/master/LICENSE" />
      </cc:Work>
    </rdf:RDF>
  </metadata>
</svg>
