<?xml version="1.0" encoding="UTF-8" standalone="no"?>
<svg
   height="16"
   viewBox="0 0 16 16"
   width="16"
   version="1.1"
   id="svg4"
   sodipodi:docname="wait.svg"
   inkscape:version="1.2.2 (b0a8486541, 2022-12-01)"
   xmlns:inkscape="http://www.inkscape.org/namespaces/inkscape"
   xmlns:sodipodi="http://sodipodi.sourceforge.net/DTD/sodipodi-0.dtd"
   xmlns="http://www.w3.org/2000/svg"
   xmlns:svg="http://www.w3.org/2000/svg"
   xmlns:rdf="http://www.w3.org/1999/02/22-rdf-syntax-ns#"
   xmlns:cc="http://creativecommons.org/ns#">
  <defs
     id="defs8" />
  <sodipodi:namedview
     id="namedview6"
     pagecolor="#ffffff"
     bordercolor="#000000"
     borderopacity="0.25"
     inkscape:showpageshadow="2"
     inkscape:pageopacity="0.0"
     inkscape:pagecheckerboard="0"
     inkscape:deskcolor="#d1d1d1"
     showgrid="false"
     inkscape:zoom="64.1875"
     inkscape:cx="7.0886076"
     inkscape:cy="7.9922103"
     inkscape:window-width="2560"
     inkscape:window-height="1367"
     inkscape:window-x="0"
     inkscape:window-y="0"
     inkscape:window-maximized="1"
     inkscape:current-layer="svg4" />
  <path
     d="m3 0c-.55228 0-1 .447715-1 1 0 .55228.44772 1 1 1v1.17157c0 .79565.31607 1.55871.87868 2.12132l2.70711 2.70711-2.70711 2.7071c-.56261.5626-.87868 1.3257-.87868 2.1213v1.1716c-.55228 0-1 .4477-1 1s.44772 1 1 1h10c.5523 0 1-.4477 1-1s-.4477-1-1-1v-1.1716c0-.7956-.3161-1.5587-.8787-2.1213l-2.70709-2.7071 2.70709-2.70711c.5626-.56261.8787-1.32567.8787-2.12132v-1.17157c.5523 0 1-.44772 1-1 0-.552285-.4477-1-1-1zm8 2h-6v1.17157c0 .26522.10536.51957.29289.70711l.12132.12132h5.17159l.1213-.12132c.1875-.18754.2929-.44189.2929-.70711zm-3 7.41421-2.70711 2.70709c-.18753.1876-.29289.4419-.29289.7071v1.1716h6v-1.1716c0-.2652-.1054-.5195-.2929-.7071z"
     fill-rule="evenodd"
     id="path2"
     style="fill:#ffb649;fill-opacity:1" />
  <metadata
     id="metadata233">
    <rdf:RDF>
      <cc:Work
         rdf:about="">
        <cc:license
           rdf:resource="https://gitlab.com/gitlab-org/gitlab-svgs/-/blob/main/LICENSE" />
      </cc:Work>
    </rdf:RDF>
  </metadata>
</svg>
