# Blender 3.5.1
# www.blender.org
o Flame
v -0.000000 0.500000 -0.000000
v 0.628239 0.260225 3.500000
v 0.191342 0.461940 -0.000000
v 0.260225 0.628239 3.500000
v 0.353554 0.353554 -0.000000
v -0.260225 -0.628238 3.500000
v 0.461940 0.191342 -0.000000
v 0.628239 -0.260225 3.500000
v 0.500000 -0.000000 -0.000000
v 0.260225 -0.628238 3.500000
v 0.461940 -0.191342 0.000000
v -0.260225 0.628239 3.500000
v 0.353554 -0.353554 0.000000
v -0.628238 0.260225 3.500000
v 0.191342 -0.461940 0.000000
v -0.628238 -0.260225 3.500000
v -0.000000 -0.500000 0.000000
v -0.480833 0.480834 3.500000
v -0.191342 -0.461940 0.000000
v -0.680000 0.000000 3.500000
v -0.353554 -0.353554 0.000000
v -0.480833 -0.480833 3.500000
v -0.461940 -0.191342 0.000000
v 0.000000 -0.680000 3.500000
v -0.500000 -0.000000 -0.000000
v 0.480834 -0.480833 3.500000
v -0.461940 0.191342 -0.000000
v 0.680000 0.000000 3.500000
v -0.353554 0.353554 -0.000000
v 0.480834 0.480834 3.500000
v -0.191342 0.461940 -0.000000
v 0.000000 0.680000 3.500000
v -0.000000 0.960000 2.000000
v 0.367377 0.886925 2.000000
v 0.678822 0.678822 2.000000
v 0.886925 0.367377 2.000000
v 0.960000 0.000000 2.000000
v 0.886925 -0.367376 2.000000
v 0.678824 -0.678822 2.000000
v 0.367377 -0.886925 2.000000
v -0.000000 -0.960000 2.000000
v -0.367377 -0.886925 2.000000
v -0.678822 -0.678822 2.000000
v -0.886925 -0.367376 2.000000
v -0.960000 0.000000 2.000000
v -0.886925 0.367377 2.000000
v -0.678822 0.678822 2.000000
v -0.367377 0.886925 2.000000
v 0.000000 0.960000 3.000000
v 0.367377 0.886925 3.000000
v 0.678824 0.678824 3.000000
v 0.886925 0.367377 3.000000
v 0.960000 0.000000 3.000000
v 0.886925 -0.367376 3.000000
v 0.678824 -0.678823 3.000000
v 0.367377 -0.886925 3.000000
v 0.000000 -0.960000 3.000000
v -0.367377 -0.886925 3.000000
v -0.678824 -0.678823 3.000000
v -0.886925 -0.367376 3.000000
v -0.960000 0.000000 3.000000
v -0.886925 0.367377 3.000000
v -0.678824 0.678824 3.000000
v -0.367377 0.886925 3.000000
v 0.000000 0.000000 4.000000
v 0.000000 0.000000 4.000000
v 0.000000 0.000000 4.000000
v 0.000000 0.000000 4.000000
v 0.000000 0.000000 4.000000
v 0.000000 0.000000 4.000000
v 0.000000 0.000000 4.000000
v 0.000000 0.000000 4.000000
v 0.000000 0.000000 4.000000
v 0.000000 0.000000 4.000000
v 0.000000 0.000000 4.000000
v 0.000000 0.000000 4.000000
v 0.000000 0.000000 4.000000
v 0.000000 0.000000 4.000000
v 0.000000 0.000000 4.000000
v 0.000000 0.000000 4.000000
v -0.000000 -0.000000 -0.000000
v -0.000000 0.095584 -0.000000
v 0.036578 -0.088308 0.000000
v 0.067588 0.067588 -0.000000
v -0.067588 0.067588 -0.000000
v -0.036578 -0.088308 0.000000
v 0.095584 -0.000000 -0.000000
v -0.088308 -0.036579 0.000000
v 0.067588 -0.067588 0.000000
v 0.036578 0.088308 -0.000000
v -0.088308 0.036578 -0.000000
v -0.000000 -0.095584 0.000000
v 0.088308 0.036578 -0.000000
v -0.036578 0.088308 -0.000000
v -0.067588 -0.067588 0.000000
v 0.088308 -0.036579 0.000000
v -0.095584 -0.000000 -0.000000
v -0.141168 -0.000000 -0.000000
v 0.130422 -0.054023 0.000000
v -0.099821 -0.099821 0.000000
v -0.054022 0.130422 -0.000000
v 0.130422 0.054022 -0.000000
v -0.000000 -0.141168 0.000000
v -0.130422 0.054022 -0.000000
v 0.054022 0.130422 -0.000000
v 0.099821 -0.099821 0.000000
v -0.130422 -0.054023 0.000000
v 0.141168 -0.000000 -0.000000
v -0.054022 -0.130422 0.000000
v -0.099821 0.099821 -0.000000
v 0.099821 0.099821 -0.000000
v 0.054022 -0.130422 0.000000
v -0.000000 0.141168 -0.000000
v -0.000000 0.803000 1.000000
v 0.307295 0.741876 1.000000
v 0.567806 0.567806 1.000000
v 0.741876 0.307295 1.000000
v 0.803000 0.000000 1.000000
v 0.741876 -0.307295 1.000000
v 0.567807 -0.567806 1.000000
v 0.307295 -0.741876 1.000000
v -0.000000 -0.803000 1.000000
v -0.567806 -0.567806 1.000000
v -0.741876 -0.307295 1.000000
v -0.803000 0.000000 1.000000
v -0.741876 0.307295 1.000000
v -0.567806 0.567806 1.000000
v -0.307295 0.741876 1.000000
v -0.307295 -0.741876 1.000000
vn -0.3710 0.8957 0.2451
vn -0.2910 0.7026 0.6493
vn -0.0000 0.7605 0.6493
vn -0.0000 0.9695 0.2451
vn -0.8957 0.3710 0.2451
vn -0.7026 0.2910 0.6493
vn -0.5378 0.5378 0.6493
vn -0.6855 0.6855 0.2451
vn -0.9695 -0.0000 0.2451
vn -0.7605 -0.0000 0.6493
vn -0.8957 -0.3710 0.2451
vn -0.7026 -0.2910 0.6493
vn -0.6855 -0.6855 0.2451
vn -0.5378 -0.5378 0.6493
vn -0.3710 -0.8957 0.2451
vn -0.2910 -0.7026 0.6493
vn -0.0000 -0.9695 0.2451
vn -0.0000 -0.7605 0.6493
vn 0.3710 -0.8957 0.2451
vn 0.2910 -0.7026 0.6493
vn 0.6855 -0.6855 0.2451
vn 0.5378 -0.5378 0.6493
vn 0.8957 -0.3710 0.2451
vn 0.7026 -0.2910 0.6493
vn 0.9695 -0.0000 0.2451
vn 0.7605 -0.0000 0.6493
vn 0.8957 0.3710 0.2451
vn 0.7026 0.2910 0.6493
vn 0.6855 0.6855 0.2451
vn 0.5378 0.5378 0.6493
vn 0.3710 0.8957 0.2451
vn 0.2910 0.7026 0.6493
vn -0.3732 0.9010 -0.2212
vn -0.3815 0.9211 -0.0770
vn -0.0000 0.9970 -0.0770
vn -0.0000 0.9752 -0.2212
vn -0.6896 0.6896 -0.2212
vn -0.7050 0.7050 -0.0770
vn -0.9010 0.3732 -0.2212
vn -0.9211 0.3815 -0.0770
vn -0.9752 -0.0000 -0.2212
vn -0.9970 -0.0000 -0.0770
vn -0.9010 -0.3732 -0.2212
vn -0.9211 -0.3815 -0.0770
vn -0.6896 -0.6896 -0.2212
vn -0.7050 -0.7050 -0.0770
vn -0.3732 -0.9010 -0.2212
vn -0.3815 -0.9211 -0.0770
vn -0.0000 -0.9752 -0.2212
vn -0.0000 -0.9970 -0.0770
vn 0.3732 -0.9010 -0.2212
vn 0.3815 -0.9211 -0.0770
vn 0.6896 -0.6896 -0.2212
vn 0.7050 -0.7050 -0.0770
vn 0.9010 -0.3732 -0.2212
vn 0.9211 -0.3815 -0.0770
vn 0.9752 -0.0000 -0.2212
vn 0.9970 -0.0000 -0.0770
vn 0.9010 0.3732 -0.2212
vn 0.9211 0.3815 -0.0770
vn 0.6896 0.6896 -0.2212
vn 0.7050 0.7050 -0.0770
vn 0.3732 0.9010 -0.2212
vn 0.3815 0.9211 -0.0770
vn -0.2387 0.5423 0.8056
vn -0.0000 0.5924 0.8057
vn -0.3988 0.4386 0.8053
vn -0.5473 0.2267 0.8057
vn -0.5924 -0.0000 0.8057
vn -0.5473 -0.2267 0.8057
vn -0.4323 -0.4053 0.8055
vn -0.2067 -0.5554 0.8055
vn -0.0000 -0.5924 0.8057
vn 0.2019 -0.5573 0.8054
vn 0.4323 -0.4053 0.8055
vn 0.5473 -0.2267 0.8057
vn 0.5924 -0.0000 0.8057
vn 0.5473 0.2267 0.8057
vn 0.3988 0.4386 0.8053
vn 0.2168 0.5514 0.8056
vn -0.0000 -0.0000 -1.0000
vn -0.0000 0.9570 -0.2900
vn 0.3662 0.8842 -0.2900
vn 0.6767 0.6767 -0.2900
vn 0.8842 0.3662 -0.2900
vn 0.9570 -0.0000 -0.2900
vn 0.8842 -0.3662 -0.2900
vn 0.6767 -0.6767 -0.2900
vn 0.3662 -0.8842 -0.2900
vn -0.0000 -0.9570 -0.2900
vn -0.3662 -0.8842 -0.2900
vn -0.6767 -0.6767 -0.2900
vn -0.8842 -0.3662 -0.2900
vn -0.9570 -0.0000 -0.2900
vn -0.8842 0.3662 -0.2900
vn -0.6767 0.6767 -0.2900
vn -0.3662 0.8842 -0.2900
vt 1.000000 0.500000
vt 0.000000 0.500000
vt 0.812500 0.937500
vt 0.937500 0.500000
vt 0.937500 0.937500
vt 0.875000 0.500000
vt 0.437500 0.937500
vt 0.812500 0.500000
vt 0.687500 0.937500
vt 0.750000 0.500000
vt 0.562500 0.937500
vt 0.687500 0.500000
vt 0.062500 0.937500
vt 0.625000 0.500000
vt 0.187500 0.937500
vt 0.562500 0.500000
vt 0.312500 0.937500
vt 0.500000 0.500000
vt 0.125000 0.937500
vt 0.437500 0.500000
vt 0.250000 0.937500
vt 0.375000 0.500000
vt 0.375000 0.937500
vt 0.312500 0.500000
vt 0.500000 0.937500
vt 0.250000 0.500000
vt 0.625000 0.937500
vt 0.187500 0.500000
vt 0.750000 0.937500
vt 0.125000 0.500000
vt 0.875000 0.937500
vt 0.062500 0.500000
vt 0.000000 0.937500
vt 1.000000 0.937500
vt 0.000000 0.750000
vt 1.000000 0.750000
vt 0.937500 0.750000
vt 0.875000 0.750000
vt 0.812500 0.750000
vt 0.750000 0.750000
vt 0.687500 0.750000
vt 0.625000 0.750000
vt 0.562500 0.750000
vt 0.500000 0.750000
vt 0.437500 0.750000
vt 0.375000 0.750000
vt 0.312500 0.750000
vt 0.250000 0.750000
vt 0.187500 0.750000
vt 0.125000 0.750000
vt 0.062500 0.750000
vt 0.000000 0.875000
vt 1.000000 0.875000
vt 0.937500 0.875000
vt 0.875000 0.875000
vt 0.812500 0.875000
vt 0.750000 0.875000
vt 0.687500 0.875000
vt 0.625000 0.875000
vt 0.562500 0.875000
vt 0.500000 0.875000
vt 0.437500 0.875000
vt 0.375000 0.875000
vt 0.312500 0.875000
vt 0.250000 0.875000
vt 0.187500 0.875000
vt 0.125000 0.875000
vt 0.062500 0.875000
vt 0.000000 1.000000
vt 1.000000 1.000000
vt 0.937500 1.000000
vt 0.875000 1.000000
vt 0.812500 1.000000
vt 0.750000 1.000000
vt 0.687500 1.000000
vt 0.625000 1.000000
vt 0.562500 1.000000
vt 0.500000 1.000000
vt 0.437500 1.000000
vt 0.375000 1.000000
vt 0.312500 1.000000
vt 0.250000 1.000000
vt 0.187500 1.000000
vt 0.125000 1.000000
vt 0.062500 1.000000
vt 0.250000 0.000000
vt 0.687500 0.000000
vt 0.375000 0.000000
vt 0.062500 0.000000
vt 0.812500 0.000000
vt 0.500000 0.000000
vt 0.187500 0.000000
vt 0.937500 0.000000
vt 0.625000 0.000000
vt 0.312500 0.000000
vt 0.000000 0.000000
vt 0.750000 0.000000
vt 0.437500 0.000000
vt 0.125000 0.000000
vt 0.875000 0.000000
vt 0.562500 0.000000
vt 1.000000 0.062500
vt 0.000000 0.062500
vt 0.562500 0.062500
vt 0.875000 0.062500
vt 0.125000 0.062500
vt 0.437500 0.062500
vt 0.750000 0.062500
vt 0.312500 0.062500
vt 0.625000 0.062500
vt 0.937500 0.062500
vt 0.187500 0.062500
vt 0.500000 0.062500
vt 0.812500 0.062500
vt 0.062500 0.062500
vt 0.375000 0.062500
vt 0.687500 0.062500
vt 0.250000 0.062500
vt 0.250000 0.125000
vt 0.687500 0.125000
vt 0.375000 0.125000
vt 0.062500 0.125000
vt 0.812500 0.125000
vt 0.500000 0.125000
vt 0.187500 0.125000
vt 0.937500 0.125000
vt 0.625000 0.125000
vt 0.312500 0.125000
vt 0.750000 0.125000
vt 0.437500 0.125000
vt 0.125000 0.125000
vt 0.875000 0.125000
vt 0.562500 0.125000
vt 0.000000 0.125000
vt 1.000000 0.125000
vt 1.000000 0.625000
vt 0.000000 0.625000
vt 0.937500 0.625000
vt 0.875000 0.625000
vt 0.812500 0.625000
vt 0.750000 0.625000
vt 0.687500 0.625000
vt 0.625000 0.625000
vt 0.562500 0.625000
vt 0.500000 0.625000
vt 0.375000 0.625000
vt 0.312500 0.625000
vt 0.250000 0.625000
vt 0.187500 0.625000
vt 0.125000 0.625000
vt 0.062500 0.625000
vt 0.437500 0.625000
s 1
f 64/68/1 12/13/2 32/33/3 49/52/4
f 62/66/5 14/15/6 18/19/7 63/67/8
f 61/65/9 20/21/10 14/15/6 62/66/5
f 60/64/11 16/17/12 20/21/10 61/65/9
f 59/63/13 22/23/14 16/17/12 60/64/11
f 58/62/15 6/7/16 22/23/14 59/63/13
f 57/61/17 24/25/18 6/7/16 58/62/15
f 56/60/19 10/11/20 24/25/18 57/61/17
f 55/59/21 26/27/22 10/11/20 56/60/19
f 54/58/23 8/9/24 26/27/22 55/59/21
f 53/57/25 28/29/26 8/9/24 54/58/23
f 52/56/27 2/3/28 28/29/26 53/57/25
f 51/55/29 30/31/30 2/3/28 52/56/27
f 50/54/31 4/5/32 30/31/30 51/55/29
f 49/53/4 32/34/3 4/5/32 50/54/31
f 128/151/33 48/51/34 33/35/35 114/137/36
f 127/150/37 47/50/38 48/51/34 128/151/33
f 126/149/39 46/49/40 47/50/38 127/150/37
f 125/148/41 45/48/42 46/49/40 126/149/39
f 124/147/43 44/47/44 45/48/42 125/148/41
f 123/146/45 43/46/46 44/47/44 124/147/43
f 129/152/47 42/45/48 43/46/46 123/146/45
f 122/145/49 41/44/50 42/45/48 129/152/47
f 121/144/51 40/43/52 41/44/50 122/145/49
f 120/143/53 39/42/54 40/43/52 121/144/51
f 119/142/55 38/41/56 39/42/54 120/143/53
f 118/141/57 37/40/58 38/41/56 119/142/55
f 117/140/59 36/39/60 37/40/58 118/141/57
f 116/139/61 35/38/62 36/39/60 117/140/59
f 115/138/63 34/37/64 35/38/62 116/139/61
f 114/136/36 33/36/35 34/37/64 115/138/63
f 48/51/34 64/68/1 49/52/4 33/35/35
f 47/50/38 63/67/8 64/68/1 48/51/34
f 46/49/40 62/66/5 63/67/8 47/50/38
f 45/48/42 61/65/9 62/66/5 46/49/40
f 44/47/44 60/64/11 61/65/9 45/48/42
f 43/46/46 59/63/13 60/64/11 44/47/44
f 42/45/48 58/62/15 59/63/13 43/46/46
f 41/44/50 57/61/17 58/62/15 42/45/48
f 40/43/52 56/60/19 57/61/17 41/44/50
f 39/42/54 55/59/21 56/60/19 40/43/52
f 38/41/56 54/58/23 55/59/21 39/42/54
f 37/40/58 53/57/25 54/58/23 38/41/56
f 36/39/60 52/56/27 53/57/25 37/40/58
f 35/38/62 51/55/29 52/56/27 36/39/60
f 34/37/64 50/54/31 51/55/29 35/38/62
f 33/36/35 49/53/4 50/54/31 34/37/64
f 12/13/2 80/85/65 65/69/66 32/33/3
f 18/19/7 79/84/67 80/85/65 12/13/2
f 14/15/6 78/83/68 79/84/67 18/19/7
f 20/21/10 77/82/69 78/83/68 14/15/6
f 16/17/12 76/81/70 77/82/69 20/21/10
f 22/23/14 75/80/71 76/81/70 16/17/12
f 6/7/16 74/79/72 75/80/71 22/23/14
f 24/25/18 73/78/73 74/79/72 6/7/16
f 10/11/20 72/77/74 73/78/73 24/25/18
f 26/27/22 71/76/75 72/77/74 10/11/20
f 8/9/24 70/75/76 71/76/75 26/27/22
f 28/29/26 69/74/77 70/75/76 8/9/24
f 2/3/28 68/73/78 69/74/77 28/29/26
f 30/31/30 67/72/79 68/73/78 2/3/28
f 4/5/32 66/71/80 67/72/79 30/31/30
f 32/34/3 65/70/66 66/71/80 4/5/32
f 63/67/8 18/19/7 12/13/2 64/68/1
f 88/109/81 97/118/81 81/86/81
f 87/108/81 96/117/81 81/87/81
f 86/107/81 95/116/81 81/88/81
f 85/106/81 94/115/81 81/89/81
f 84/105/81 93/114/81 81/90/81
f 83/104/81 92/113/81 81/91/81
f 97/118/81 91/112/81 81/92/81
f 82/102/81 90/111/81 81/93/81
f 96/117/81 89/110/81 81/94/81
f 95/116/81 88/109/81 81/95/81
f 94/115/81 82/103/81 81/96/81
f 93/114/81 87/108/81 81/97/81
f 92/113/81 86/107/81 81/98/81
f 91/112/81 85/106/81 81/99/81
f 90/111/81 84/105/81 81/100/81
f 89/110/81 83/104/81 81/101/81
f 107/128/81 98/119/81 97/118/81 88/109/81
f 108/129/81 99/120/81 96/117/81 87/108/81
f 109/130/81 100/121/81 95/116/81 86/107/81
f 110/131/81 101/122/81 94/115/81 85/106/81
f 111/132/81 102/123/81 93/114/81 84/105/81
f 112/133/81 103/124/81 92/113/81 83/104/81
f 98/119/81 104/125/81 91/112/81 97/118/81
f 113/135/81 105/126/81 90/111/81 82/102/81
f 99/120/81 106/127/81 89/110/81 96/117/81
f 100/121/81 107/128/81 88/109/81 95/116/81
f 101/122/81 113/134/81 82/103/81 94/115/81
f 102/123/81 108/129/81 87/108/81 93/114/81
f 103/124/81 109/130/81 86/107/81 92/113/81
f 104/125/81 110/131/81 85/106/81 91/112/81
f 105/126/81 111/132/81 84/105/81 90/111/81
f 3/4/81 5/6/81 111/132/81 105/126/81
f 27/28/81 29/30/81 110/131/81 104/125/81
f 17/18/81 19/20/81 109/130/81 103/124/81
f 7/8/81 9/10/81 108/129/81 102/123/81
f 31/32/81 1/2/81 113/134/81 101/122/81
f 21/22/81 23/24/81 107/128/81 100/121/81
f 11/12/81 13/14/81 106/127/81 99/120/81
f 1/1/81 3/4/81 105/126/81 113/135/81
f 25/26/81 27/28/81 104/125/81 98/119/81
f 15/16/81 17/18/81 103/124/81 112/133/81
f 5/6/81 7/8/81 102/123/81 111/132/81
f 29/30/81 31/32/81 101/122/81 110/131/81
f 19/20/81 21/22/81 100/121/81 109/130/81
f 9/10/81 11/12/81 99/120/81 108/129/81
f 23/24/81 25/26/81 98/119/81 107/128/81
f 106/127/81 112/133/81 83/104/81 89/110/81
f 13/14/81 15/16/81 112/133/81 106/127/81
f 1/1/82 114/136/36 115/138/63 3/4/83
f 3/4/83 115/138/63 116/139/61 5/6/84
f 5/6/84 116/139/61 117/140/59 7/8/85
f 7/8/85 117/140/59 118/141/57 9/10/86
f 9/10/86 118/141/57 119/142/55 11/12/87
f 11/12/87 119/142/55 120/143/53 13/14/88
f 13/14/88 120/143/53 121/144/51 15/16/89
f 15/16/89 121/144/51 122/145/49 17/18/90
f 17/18/90 122/145/49 129/152/47 19/20/91
f 19/20/91 129/152/47 123/146/45 21/22/92
f 21/22/92 123/146/45 124/147/43 23/24/93
f 23/24/93 124/147/43 125/148/41 25/26/94
f 25/26/94 125/148/41 126/149/39 27/28/95
f 27/28/95 126/149/39 127/150/37 29/30/96
f 29/30/96 127/150/37 128/151/33 31/32/97
f 31/32/97 128/151/33 114/137/36 1/2/82
