<?xml version="1.0" encoding="UTF-8" standalone="no"?>
<svg
   enable-background="new 0 0 64 64"
   viewBox="0 0 59.925094 59.925094"
   version="1.1"
   id="svg10"
   sodipodi:docname="speak.svg"
   inkscape:version="1.2.2 (b0a8486541, 2022-12-01)"
   width="16"
   height="16"
   xmlns:inkscape="http://www.inkscape.org/namespaces/inkscape"
   xmlns:sodipodi="http://sodipodi.sourceforge.net/DTD/sodipodi-0.dtd"
   xmlns="http://www.w3.org/2000/svg"
   xmlns:svg="http://www.w3.org/2000/svg"
   xmlns:rdf="http://www.w3.org/1999/02/22-rdf-syntax-ns#"
   xmlns:cc="http://creativecommons.org/ns#">
  <defs
     id="defs14" />
  <sodipodi:namedview
     id="namedview12"
     pagecolor="#ffffff"
     bordercolor="#000000"
     borderopacity="0.25"
     inkscape:showpageshadow="2"
     inkscape:pageopacity="0.0"
     inkscape:pagecheckerboard="0"
     inkscape:deskcolor="#d1d1d1"
     showgrid="false"
     inkscape:zoom="45.387416"
     inkscape:cx="7.9978115"
     inkscape:cy="10.223098"
     inkscape:window-width="2560"
     inkscape:window-height="1367"
     inkscape:window-x="0"
     inkscape:window-y="0"
     inkscape:window-maximized="1"
     inkscape:current-layer="svg10" />
  <path
     d="m 36.477147,36.427572 c -4.644,-1.466 -3.322,-2.633 1.11,-4.298 2.123,-0.799 0.832,-2.484 0.89,-3.832 0.026,-0.617 2.452,-0.494 2.276,-2.874 -0.124,-1.676 -3.816,-4.064 -4.822,-5.083 -0.581,-0.588 1.184,-2.197 -0.059,-3.612 -1.697,-1.934 -1.965,-5.299 -2.992,-7.1810001 0,0 0.783,-1.196 0.183,-1.876 C 27.887147,1.812572 8.5721473,2.350572 3.6361474,10.973572 c -5.541,9.68 -5.615,23.059 5.9059999,30.267 5.1239997,3.205 -1.4389999,14.555 -1.4389999,14.555 H 28.422147 c 0,-1.938 -2.266,-8.89 1.7,-8.578 3.446,0.271 7.666,0.122 7.292,-3.77 -0.113,-1.174 -0.246,-2.231 0.574,-3.204 0.82,-0.972 2.007,-2.706 -1.511,-3.816"
     id="path2"
     style="fill:#ffb649;fill-opacity:1" />
  <path
     d="m 41.128147,34.600572 18.871,2.472 v -4.943 z"
     id="path4"
     style="fill:#ffb649;fill-opacity:1" />
  <path
     d="m 56.459147,50.876572 2.024,-4.281 -17.355,-9.368 z"
     id="path6"
     style="fill:#ffb649;fill-opacity:1" />
  <path
     d="m 58.483147,22.561572 -2.024,-4.282 -15.331,13.651 z"
     id="path8"
     style="fill:#ffb649;fill-opacity:1" />
  <metadata
     id="metadata236">
    <rdf:RDF>
      <cc:Work
         rdf:about="">
        <cc:license
           rdf:resource="https://github.com/EmojiTwo/emojitwo/blob/master/LICENSE.md" />
      </cc:Work>
    </rdf:RDF>
  </metadata>
</svg>
